<svg width="44" height="36" viewBox="0 0 44 36" fill="none" xmlns="http://www.w3.org/2000/svg">
<path d="M37.2038 3.27558C34.3311 1.89212 31.292 0.909109 28.1669 0.352539C27.7776 1.07692 27.3228 2.0512 27.0092 2.8263C23.6397 2.30481 20.3012 2.30481 16.9937 2.8263C16.6802 2.05138 16.2151 1.07692 15.8223 0.352539C12.694 0.909365 9.65236 1.89488 6.77831 3.2828C1.05918 12.1784 -0.491239 20.8528 0.283884 29.4044C4.07719 32.32 7.75329 34.0912 11.3674 35.2503C12.2657 33.9789 13.0596 32.6329 13.7412 31.2261C12.4436 30.7177 11.1926 30.091 10.0032 29.3537C10.3162 29.1149 10.6218 28.866 10.9197 28.6074C18.1271 32.0773 25.9584 32.0773 33.0799 28.6074C33.379 28.8643 33.6846 29.1131 33.9962 29.3537C32.8049 30.0929 31.5516 30.7209 30.2513 31.2298C30.9368 32.6423 31.7294 33.9896 32.6251 35.2538C36.2427 34.0949 39.9222 32.3237 43.7155 29.4044C44.6251 19.491 42.1619 10.8962 37.2038 3.27558ZM14.7232 24.1453C12.5596 24.1453 10.7852 22.0662 10.7852 19.5345C10.7852 17.0028 12.5217 14.9202 14.7232 14.9202C16.9249 14.9202 18.6991 16.9991 18.6613 19.5345C18.6647 22.0662 16.9249 24.1453 14.7232 24.1453ZM29.2762 24.1453C27.1125 24.1453 25.3383 22.0662 25.3383 19.5345C25.3383 17.0028 27.0747 14.9202 29.2762 14.9202C31.4778 14.9202 33.2521 16.9991 33.2143 19.5345C33.2143 22.0662 31.4778 24.1453 29.2762 24.1453Z" fill="#5865F2" style="fill:#5865F2;fill:color(display-p3 0.3451 0.3961 0.9490);fill-opacity:1;"/>
</svg>
