<svg width="130" height="114" viewBox="0 0 130 114" fill="none" xmlns="http://www.w3.org/2000/svg">
<path d="M120.125 9.90643C114.247 4.19769 106.382 0.993506 98.1875 0.96893H32.1875C28.115 0.911068 24.0714 1.66119 20.2906 3.17591C16.5098 4.69064 13.0668 6.9399 10.1608 9.79363C7.25476 12.6474 4.94333 16.0489 3.36019 19.8016C1.77705 23.5542 0.953612 27.5835 0.9375 31.6564V82.3439C0.950142 86.3825 1.76307 90.3785 3.32931 94.101C4.89555 97.8235 7.18404 101.199 10.0625 104.031C15.9087 109.797 23.7891 113.03 32 113.031H98C106.211 113.03 114.091 109.797 119.938 104.031C122.833 101.211 125.132 97.8387 126.7 94.1133C128.267 90.3879 129.071 86.3857 129.062 82.3439V31.6564C129.09 27.6195 128.314 23.6174 126.779 19.8833C125.245 16.1492 122.983 12.7577 120.125 9.90643ZM62.875 86.4689C61.6318 86.4689 60.4395 85.9751 59.5604 85.096C58.6814 84.2169 58.1875 83.0246 58.1875 81.7814C58.1887 79.8865 57.8137 78.0103 57.0841 76.2615C56.3546 74.5127 55.285 72.9261 53.9375 71.5939C51.1308 68.9979 47.4482 67.556 43.625 67.556C39.8018 67.556 36.1192 68.9979 33.3125 71.5939C31.9622 72.924 30.8908 74.5102 30.161 76.2594C29.4312 78.0087 29.0578 79.886 29.0625 81.7814C29.0625 83.0246 28.5686 84.2169 27.6896 85.096C26.8105 85.9751 25.6182 86.4689 24.375 86.4689C23.1318 86.4689 21.9395 85.9751 21.0604 85.096C20.1814 84.2169 19.6875 83.0246 19.6875 81.7814C19.6825 78.6458 20.2986 75.5402 21.5 72.6439C22.7014 69.7476 24.4645 67.1179 26.6875 64.9064C28.831 62.6795 31.3755 60.8771 34.1875 59.5939C31.6575 58.0396 29.5699 55.8608 28.1251 53.2667C26.6803 50.6727 25.927 47.7507 25.9375 44.7814C25.9375 40.1401 27.7812 35.6889 31.0631 32.4071C34.345 29.1252 38.7962 27.2814 43.4375 27.2814C48.0788 27.2814 52.53 29.1252 55.8119 32.4071C59.0938 35.6889 60.9375 40.1401 60.9375 44.7814C60.9744 47.7271 60.2591 50.6335 58.8592 53.2255C57.4593 55.8176 55.4211 58.0095 52.9375 59.5939C55.7937 60.7814 58.4062 62.5002 60.625 64.6564C65.069 69.1538 67.5808 75.209 67.625 81.5314C67.6689 82.1752 67.5776 82.8211 67.3569 83.4275C67.1362 84.0339 66.7911 84.5873 66.3437 85.0524C65.8964 85.5174 65.3566 85.8837 64.7592 86.1276C64.1618 86.3716 63.52 86.4879 62.875 86.4689ZM103.688 80.9689H81.25C80.0068 80.9689 78.8145 80.4751 77.9354 79.596C77.0564 78.7169 76.5625 77.5246 76.5625 76.2814C76.5625 75.0382 77.0564 73.8459 77.9354 72.9669C78.8145 72.0878 80.0068 71.5939 81.25 71.5939H103.688C104.931 71.5939 106.123 72.0878 107.002 72.9669C107.881 73.8459 108.375 75.0382 108.375 76.2814C108.375 77.5246 107.881 78.7169 107.002 79.596C106.123 80.4751 104.931 80.9689 103.688 80.9689ZM76.5625 56.9689C76.5625 55.7257 77.0564 54.5334 77.9354 53.6544C78.8145 52.7753 80.0068 52.2814 81.25 52.2814H90.875C92.1182 52.2814 93.3105 52.7753 94.1896 53.6544C95.0686 54.5334 95.5625 55.7257 95.5625 56.9689C95.5625 58.2121 95.0686 59.4044 94.1896 60.2835C93.3105 61.1626 92.1182 61.6564 90.875 61.6564H81.25C80.6321 61.6648 80.0188 61.5493 79.4463 61.3167C78.8738 61.0841 78.3537 60.7392 77.9167 60.3022C77.4797 59.8653 77.1348 59.3452 76.9022 58.7727C76.6696 58.2001 76.5541 57.5868 76.5625 56.9689ZM103.688 42.4064H81.25C80.0068 42.4064 78.8145 41.9126 77.9354 41.0335C77.0564 40.1544 76.5625 38.9621 76.5625 37.7189C76.5625 36.4757 77.0564 35.2834 77.9354 34.4044C78.8145 33.5253 80.0068 33.0314 81.25 33.0314H103.688C104.931 33.0314 106.123 33.5253 107.002 34.4044C107.881 35.2834 108.375 36.4757 108.375 37.7189C108.375 38.9621 107.881 40.1544 107.002 41.0335C106.123 41.9126 104.931 42.4064 103.688 42.4064Z" fill="url(#paint0_linear_3321_636)" style=""/>
<defs>
<linearGradient id="paint0_linear_3321_636" x1="-6.09162" y1="47.4915" x2="66.1253" y2="124.617" gradientUnits="userSpaceOnUse">
<stop stop-color="#580069" style="stop-color:#580069;stop-color:color(display-p3 0.3462 0.0000 0.4125);stop-opacity:1;"/>
<stop offset="1" stop-color="#C205BB" style="stop-color:#C205BB;stop-color:color(display-p3 0.7611 0.0211 0.7315);stop-opacity:1;"/>
</linearGradient>
</defs>
</svg>
