<svg width="104" height="110" viewBox="0 0 104 110" fill="none" xmlns="http://www.w3.org/2000/svg">
<path d="M8.00005 13.75C8.00005 10.1033 9.15897 6.60591 11.2219 4.02728C13.2848 1.44866 16.0827 0 19 0C21.9174 0 24.7153 1.44866 26.7782 4.02728C28.8411 6.60591 30 10.1033 30 13.75C30 17.3967 28.8411 20.8941 26.7782 23.4727C24.7153 26.0513 21.9174 27.5 19 27.5C16.0827 27.5 13.2848 26.0513 11.2219 23.4727C9.15897 20.8941 8.00005 17.3967 8.00005 13.75ZM1.45161 50.1445C2.03599 41.2285 8.00005 34.375 15.15 34.375H22.85C27.4907 34.375 31.6157 37.2539 34.1079 41.7012C33.6438 42.1094 33.2141 42.5605 32.8188 43.0547L21.8188 56.8047C18.0547 61.5098 18.0547 69.1152 21.8188 73.8203L30 84.0469V99.6875C30 105.381 26.3047 110 21.75 110H16.25C11.6954 110 8.00005 105.381 8.00005 99.6875V74.8301C3.44536 72.7891 0.317236 67.1387 0.746923 60.7363L1.45161 50.1445ZM74 13.75C74 10.1033 75.159 6.60591 77.2219 4.02728C79.2848 1.44866 82.0827 0 85 0C87.9174 0 90.7153 1.44866 92.7782 4.02728C94.8411 6.60591 96 10.1033 96 13.75C96 17.3967 94.8411 20.8941 92.7782 23.4727C90.7153 26.0513 87.9174 27.5 85 27.5C82.0827 27.5 79.2848 26.0513 77.2219 23.4727C75.159 20.8941 74 17.3967 74 13.75ZM71.1813 43.0547C70.786 42.5605 70.3391 42.1094 69.8922 41.7012C72.3844 37.2539 76.5266 34.375 81.15 34.375H88.8501C96.0001 34.375 101.964 41.2285 102.548 50.1445L103.253 60.7363C103.683 67.1387 100.555 72.7891 96 74.8301V99.6875C96 105.381 92.3047 110 87.75 110H82.25C77.6954 110 74 105.381 74 99.6875V84.0469L82.1813 73.8203C85.9454 69.1152 85.9454 61.5098 82.1813 56.8047L71.1813 43.0547ZM43.75 51.5625V58.4375H60.25V51.5625C60.25 49.4785 61.2469 47.5879 62.7938 46.793C64.3407 45.998 66.111 46.4277 67.2969 47.9102L78.2969 61.6602C79.9126 63.6797 79.9126 66.9453 78.2969 68.9434L67.2969 82.6934C66.111 84.1758 64.3407 84.6055 62.7938 83.8105C61.2469 83.0156 60.25 81.125 60.25 79.041V72.1875H43.75V79.0625C43.75 81.1465 42.7532 83.0371 41.2063 83.832C39.6594 84.627 37.8891 84.1973 36.7032 82.7148L25.7032 68.9648C24.0875 66.9453 24.0875 63.6797 25.7032 61.6816L36.7032 47.9316C37.8891 46.4492 39.6594 46.0195 41.2063 46.8145C42.7532 47.6094 43.75 49.5 43.75 51.584V51.5625Z" fill="url(#paint0_linear_3321_641)" style=""/>
<defs>
<linearGradient id="paint0_linear_3321_641" x1="-4.92041" y1="45.6681" x2="65.4481" y2="106.969" gradientUnits="userSpaceOnUse">
<stop stop-color="#580069" style="stop-color:#580069;stop-color:color(display-p3 0.3462 0.0000 0.4125);stop-opacity:1;"/>
<stop offset="1" stop-color="#C205BB" style="stop-color:#C205BB;stop-color:color(display-p3 0.7611 0.0211 0.7315);stop-opacity:1;"/>
</linearGradient>
</defs>
</svg>
