<svg width="114" height="114" viewBox="0 0 114 114" fill="none" xmlns="http://www.w3.org/2000/svg">
<path d="M94.5 24.1875V108.562C94.5 109.806 94.0061 110.998 93.1271 111.877C92.248 112.756 91.0557 113.25 89.8125 113.25H5.4375C4.1943 113.25 3.00201 112.756 2.12294 111.877C1.24386 110.998 0.75 109.806 0.75 108.562V24.1875C0.75 22.9443 1.24386 21.752 2.12294 20.8729C3.00201 19.9939 4.1943 19.5 5.4375 19.5H89.8125C91.0557 19.5 92.248 19.9939 93.1271 20.8729C94.0061 21.752 94.5 22.9443 94.5 24.1875ZM108.562 0.75H24.1875C22.9443 0.75 21.752 1.24386 20.8729 2.12294C19.9939 3.00201 19.5 4.1943 19.5 5.4375C19.5 6.6807 19.9939 7.87299 20.8729 8.75206C21.752 9.63114 22.9443 10.125 24.1875 10.125H103.875V89.8125C103.875 91.0557 104.369 92.248 105.248 93.1271C106.127 94.0061 107.319 94.5 108.562 94.5C109.806 94.5 110.998 94.0061 111.877 93.1271C112.756 92.248 113.25 91.0557 113.25 89.8125V5.4375C113.25 4.1943 112.756 3.00201 111.877 2.12294C110.998 1.24386 109.806 0.75 108.562 0.75Z" fill="url(#paint0_linear_3321_628)" style=""/>
<defs>
<linearGradient id="paint0_linear_3321_628" x1="-5.42188" y1="47.456" x2="67.0634" y2="115.165" gradientUnits="userSpaceOnUse">
<stop stop-color="#580069" style="stop-color:#580069;stop-color:color(display-p3 0.3462 0.0000 0.4125);stop-opacity:1;"/>
<stop offset="1" stop-color="#C205BB" style="stop-color:#C205BB;stop-color:color(display-p3 0.7611 0.0211 0.7315);stop-opacity:1;"/>
</linearGradient>
</defs>
</svg>
