<svg width="44" height="45" viewBox="0 0 44 45" fill="none" xmlns="http://www.w3.org/2000/svg">
<g clip-path="url(#clip0_3321_665)">
<path d="M21.9048 0.219727C16.0966 0.219727 10.5211 2.52897 6.41741 6.63543C2.30946 10.7435 0.00113792 16.3149 0 22.1245C0 27.9316 2.31027 33.5071 6.41741 37.6136C10.5211 41.72 16.0966 44.0293 21.9048 44.0293C27.7129 44.0293 33.2884 41.72 37.3921 37.6136C41.4993 33.5071 43.8095 27.9316 43.8095 22.1245C43.8095 16.3173 41.4993 10.7419 37.3921 6.63543C33.2884 2.52897 27.7129 0.219727 21.9048 0.219727Z" fill="url(#paint0_linear_3321_665)" style=""/>
<path d="M9.9153 21.8933C16.3019 19.1114 20.5596 17.2772 22.6885 16.3911C28.7739 13.8607 30.0369 13.4213 30.8617 13.4064C31.0431 13.4035 31.447 13.4483 31.7105 13.6614C31.9296 13.8411 31.9912 14.0841 32.022 14.2547C32.0494 14.4251 32.087 14.8136 32.0562 15.1168C31.7277 18.5805 30.3004 26.9858 29.5748 30.8653C29.2702 32.5068 28.6644 33.0572 28.0791 33.1109C26.8059 33.228 25.8407 32.2703 24.6086 31.4629C22.6817 30.1989 21.5933 29.4124 19.7211 28.1793C17.558 26.7541 18.9613 25.9706 20.1934 24.6906C20.5152 24.3555 26.1214 19.2575 26.2275 18.7951C26.2412 18.7373 26.2549 18.5217 26.1248 18.408C25.9982 18.2941 25.8099 18.3331 25.673 18.3639C25.478 18.4077 22.401 20.4435 16.432 24.4709C15.5592 25.0712 14.7686 25.3638 14.0567 25.3484C13.2763 25.3316 11.7704 24.9062 10.6512 24.5427C9.28212 24.0968 8.1903 23.8609 8.28613 23.1035C8.33405 22.7092 8.87825 22.3057 9.9153 21.8933Z" fill="white" style="fill:white;fill-opacity:1;"/>
</g>
<defs>
<linearGradient id="paint0_linear_3321_665" x1="2190.48" y1="0.219727" x2="2190.48" y2="4381.17" gradientUnits="userSpaceOnUse">
<stop stop-color="#2AABEE" style="stop-color:#2AABEE;stop-color:color(display-p3 0.1647 0.6706 0.9333);stop-opacity:1;"/>
<stop offset="1" stop-color="#229ED9" style="stop-color:#229ED9;stop-color:color(display-p3 0.1333 0.6196 0.8510);stop-opacity:1;"/>
</linearGradient>
<clipPath id="clip0_3321_665">
<rect width="43.8095" height="43.8095" fill="white" style="fill:white;fill-opacity:1;" transform="translate(0 0.219727)"/>
</clipPath>
</defs>
</svg>
